<mxfile host="app.diagrams.net" agent="Mozilla/5.0 (Windows NT 10.0; Win64; x64) AppleWebKit/537.36 (KHTML, like Gecko) Chrome/129.0.0.0 Safari/537.36 Edg/129.0.0.0" version="24.7.17">
  <diagram name="Page-1" id="qsY-jHhon0gbvLyIq4VW">
    <mxGraphModel dx="2413" dy="1619" grid="0" gridSize="10" guides="1" tooltips="1" connect="1" arrows="0" fold="1" page="1" pageScale="1" pageWidth="1100" pageHeight="850" math="0" shadow="0">
      <root>
        <mxCell id="0" />
        <mxCell id="1" parent="0" />
        <mxCell id="J938ZOK6EGLua0QpuIXS-26" style="edgeStyle=none;curved=1;rounded=0;orthogonalLoop=1;jettySize=auto;html=1;exitX=0.5;exitY=0.5;exitDx=0;exitDy=0;exitPerimeter=0;entryX=0;entryY=0.5;entryDx=0;entryDy=0;fontSize=12;startSize=8;endSize=8;endArrow=none;endFill=0;" edge="1" parent="1" source="J938ZOK6EGLua0QpuIXS-1" target="J938ZOK6EGLua0QpuIXS-10">
          <mxGeometry relative="1" as="geometry" />
        </mxCell>
        <mxCell id="J938ZOK6EGLua0QpuIXS-30" style="edgeStyle=none;curved=1;rounded=0;orthogonalLoop=1;jettySize=auto;html=1;exitX=0.5;exitY=0.5;exitDx=0;exitDy=0;exitPerimeter=0;entryX=0;entryY=0.5;entryDx=0;entryDy=0;fontSize=12;startSize=8;endSize=8;endArrow=none;endFill=0;" edge="1" parent="1" source="J938ZOK6EGLua0QpuIXS-1" target="J938ZOK6EGLua0QpuIXS-8">
          <mxGeometry relative="1" as="geometry" />
        </mxCell>
        <mxCell id="J938ZOK6EGLua0QpuIXS-1" value="Receptionist" style="shape=umlActor;verticalLabelPosition=bottom;verticalAlign=top;html=1;outlineConnect=0;" vertex="1" parent="1">
          <mxGeometry x="-898" y="-539" width="30" height="60" as="geometry" />
        </mxCell>
        <mxCell id="J938ZOK6EGLua0QpuIXS-51" style="edgeStyle=none;curved=1;rounded=0;orthogonalLoop=1;jettySize=auto;html=1;exitX=0.5;exitY=0.5;exitDx=0;exitDy=0;exitPerimeter=0;entryX=1;entryY=0.5;entryDx=0;entryDy=0;fontSize=12;startSize=8;endSize=8;endArrow=none;endFill=0;" edge="1" parent="1" source="J938ZOK6EGLua0QpuIXS-2" target="J938ZOK6EGLua0QpuIXS-42">
          <mxGeometry relative="1" as="geometry" />
        </mxCell>
        <mxCell id="J938ZOK6EGLua0QpuIXS-52" style="edgeStyle=none;curved=1;rounded=0;orthogonalLoop=1;jettySize=auto;html=1;exitX=0.5;exitY=0.5;exitDx=0;exitDy=0;exitPerimeter=0;entryX=1;entryY=0.5;entryDx=0;entryDy=0;fontSize=12;startSize=8;endSize=8;endArrow=none;endFill=0;" edge="1" parent="1" source="J938ZOK6EGLua0QpuIXS-2" target="J938ZOK6EGLua0QpuIXS-43">
          <mxGeometry relative="1" as="geometry" />
        </mxCell>
        <mxCell id="J938ZOK6EGLua0QpuIXS-58" style="edgeStyle=none;curved=1;rounded=0;orthogonalLoop=1;jettySize=auto;html=1;exitX=0.5;exitY=0.5;exitDx=0;exitDy=0;exitPerimeter=0;entryX=1;entryY=0.5;entryDx=0;entryDy=0;fontSize=12;startSize=8;endSize=8;endArrow=none;endFill=0;" edge="1" parent="1" source="J938ZOK6EGLua0QpuIXS-2" target="J938ZOK6EGLua0QpuIXS-50">
          <mxGeometry relative="1" as="geometry" />
        </mxCell>
        <mxCell id="J938ZOK6EGLua0QpuIXS-2" value="Customer&amp;nbsp;&lt;div&gt;(table)&lt;/div&gt;" style="shape=umlActor;verticalLabelPosition=bottom;verticalAlign=top;html=1;outlineConnect=0;" vertex="1" parent="1">
          <mxGeometry x="915" y="-514" width="30" height="60" as="geometry" />
        </mxCell>
        <mxCell id="J938ZOK6EGLua0QpuIXS-75" style="edgeStyle=none;curved=1;rounded=0;orthogonalLoop=1;jettySize=auto;html=1;exitX=0.5;exitY=0.5;exitDx=0;exitDy=0;exitPerimeter=0;fontSize=12;startSize=8;endSize=8;endArrow=none;endFill=0;" edge="1" parent="1" source="J938ZOK6EGLua0QpuIXS-3" target="J938ZOK6EGLua0QpuIXS-73">
          <mxGeometry relative="1" as="geometry" />
        </mxCell>
        <mxCell id="J938ZOK6EGLua0QpuIXS-3" value="Waiter" style="shape=umlActor;verticalLabelPosition=bottom;verticalAlign=top;html=1;outlineConnect=0;" vertex="1" parent="1">
          <mxGeometry x="945" y="395" width="30" height="60" as="geometry" />
        </mxCell>
        <mxCell id="J938ZOK6EGLua0QpuIXS-68" style="edgeStyle=none;curved=1;rounded=0;orthogonalLoop=1;jettySize=auto;html=1;exitX=0.5;exitY=0.5;exitDx=0;exitDy=0;exitPerimeter=0;entryX=0;entryY=0.5;entryDx=0;entryDy=0;fontSize=12;startSize=8;endSize=8;endArrow=none;endFill=0;" edge="1" parent="1" source="J938ZOK6EGLua0QpuIXS-4" target="J938ZOK6EGLua0QpuIXS-65">
          <mxGeometry relative="1" as="geometry" />
        </mxCell>
        <mxCell id="J938ZOK6EGLua0QpuIXS-4" value="Kitchen" style="shape=umlActor;verticalLabelPosition=bottom;verticalAlign=top;html=1;outlineConnect=0;" vertex="1" parent="1">
          <mxGeometry x="-980" y="365" width="30" height="60" as="geometry" />
        </mxCell>
        <mxCell id="J938ZOK6EGLua0QpuIXS-32" value="&#xa;&lt;br style=&quot;forced-color-adjust: none;&quot;&gt;&lt;span style=&quot;forced-color-adjust: none; color: rgb(0, 0, 0); font-family: Helvetica; font-size: 12px; font-style: normal; font-variant-ligatures: normal; font-variant-caps: normal; font-weight: 400; letter-spacing: normal; orphans: 2; text-align: center; text-indent: 0px; text-transform: none; widows: 2; word-spacing: 0px; -webkit-text-stroke-width: 0px; white-space: nowrap; background-color: rgb(255, 255, 255); text-decoration-thickness: initial; text-decoration-style: initial; text-decoration-color: initial; float: none; display: inline !important;&quot;&gt;&amp;lt;&amp;lt;include&amp;gt;&amp;gt;&lt;/span&gt;&lt;div style=&quot;forced-color-adjust: none;&quot;&gt;&lt;br style=&quot;forced-color-adjust: none; color: rgb(0, 0, 0); font-family: Helvetica; font-size: 12px; font-style: normal; font-variant-ligatures: normal; font-variant-caps: normal; font-weight: 400; letter-spacing: normal; orphans: 2; text-align: center; text-indent: 0px; text-transform: none; widows: 2; word-spacing: 0px; -webkit-text-stroke-width: 0px; white-space: nowrap; background-color: rgb(255, 255, 255); text-decoration-thickness: initial; text-decoration-style: initial; text-decoration-color: initial;&quot;&gt;&#xa;&#xa;&lt;/div&gt;" style="edgeStyle=none;curved=1;rounded=0;orthogonalLoop=1;jettySize=auto;html=1;exitX=1;exitY=0.5;exitDx=0;exitDy=0;entryX=0;entryY=0;entryDx=0;entryDy=0;fontSize=12;startSize=8;endSize=8;dashed=1;dashPattern=8 8;" edge="1" parent="1" source="J938ZOK6EGLua0QpuIXS-7" target="J938ZOK6EGLua0QpuIXS-9">
          <mxGeometry relative="1" as="geometry" />
        </mxCell>
        <mxCell id="J938ZOK6EGLua0QpuIXS-7" value="Check in" style="ellipse;whiteSpace=wrap;html=1;" vertex="1" parent="1">
          <mxGeometry x="-715" y="-711" width="120" height="80" as="geometry" />
        </mxCell>
        <mxCell id="J938ZOK6EGLua0QpuIXS-34" value="&#xa;&lt;br style=&quot;forced-color-adjust: none;&quot;&gt;&lt;span style=&quot;forced-color-adjust: none; color: rgb(0, 0, 0); font-family: Helvetica; font-size: 12px; font-style: normal; font-variant-ligatures: normal; font-variant-caps: normal; font-weight: 400; letter-spacing: normal; orphans: 2; text-align: center; text-indent: 0px; text-transform: none; widows: 2; word-spacing: 0px; -webkit-text-stroke-width: 0px; white-space: nowrap; background-color: rgb(255, 255, 255); text-decoration-thickness: initial; text-decoration-style: initial; text-decoration-color: initial; float: none; display: inline !important;&quot;&gt;&amp;lt;&amp;lt;include&amp;gt;&amp;gt;&lt;/span&gt;&lt;div style=&quot;forced-color-adjust: none;&quot;&gt;&lt;br style=&quot;forced-color-adjust: none; color: rgb(0, 0, 0); font-family: Helvetica; font-size: 12px; font-style: normal; font-variant-ligatures: normal; font-variant-caps: normal; font-weight: 400; letter-spacing: normal; orphans: 2; text-align: center; text-indent: 0px; text-transform: none; widows: 2; word-spacing: 0px; -webkit-text-stroke-width: 0px; white-space: nowrap; background-color: rgb(255, 255, 255); text-decoration-thickness: initial; text-decoration-style: initial; text-decoration-color: initial;&quot;&gt;&#xa;&#xa;&lt;/div&gt;" style="edgeStyle=none;curved=1;rounded=0;orthogonalLoop=1;jettySize=auto;html=1;exitX=0.5;exitY=0;exitDx=0;exitDy=0;entryX=0;entryY=1;entryDx=0;entryDy=0;fontSize=12;startSize=8;endSize=8;dashed=1;dashPattern=8 8;spacing=0;" edge="1" parent="1" source="J938ZOK6EGLua0QpuIXS-12" target="J938ZOK6EGLua0QpuIXS-11">
          <mxGeometry x="-0.0159" y="-39" relative="1" as="geometry">
            <mxPoint as="offset" />
          </mxGeometry>
        </mxCell>
        <mxCell id="J938ZOK6EGLua0QpuIXS-35" value="&#xa;&lt;br style=&quot;forced-color-adjust: none;&quot;&gt;&lt;span style=&quot;forced-color-adjust: none; color: rgb(0, 0, 0); font-family: Helvetica; font-size: 12px; font-style: normal; font-variant-ligatures: normal; font-variant-caps: normal; font-weight: 400; letter-spacing: normal; orphans: 2; text-align: center; text-indent: 0px; text-transform: none; widows: 2; word-spacing: 0px; -webkit-text-stroke-width: 0px; white-space: nowrap; background-color: rgb(255, 255, 255); text-decoration-thickness: initial; text-decoration-style: initial; text-decoration-color: initial; float: none; display: inline !important;&quot;&gt;&amp;lt;&amp;lt;include&amp;gt;&amp;gt;&lt;/span&gt;&lt;div style=&quot;forced-color-adjust: none;&quot;&gt;&lt;br style=&quot;forced-color-adjust: none; color: rgb(0, 0, 0); font-family: Helvetica; font-size: 12px; font-style: normal; font-variant-ligatures: normal; font-variant-caps: normal; font-weight: 400; letter-spacing: normal; orphans: 2; text-align: center; text-indent: 0px; text-transform: none; widows: 2; word-spacing: 0px; -webkit-text-stroke-width: 0px; white-space: nowrap; background-color: rgb(255, 255, 255); text-decoration-thickness: initial; text-decoration-style: initial; text-decoration-color: initial;&quot;&gt;&#xa;&#xa;&lt;/div&gt;" style="edgeStyle=none;curved=1;rounded=0;orthogonalLoop=1;jettySize=auto;html=1;exitX=1;exitY=1;exitDx=0;exitDy=0;entryX=0;entryY=0.5;entryDx=0;entryDy=0;fontSize=12;startSize=8;endSize=8;dashed=1;dashPattern=8 8;" edge="1" parent="1" source="J938ZOK6EGLua0QpuIXS-8" target="J938ZOK6EGLua0QpuIXS-12">
          <mxGeometry relative="1" as="geometry" />
        </mxCell>
        <mxCell id="J938ZOK6EGLua0QpuIXS-8" value="Check out" style="ellipse;whiteSpace=wrap;html=1;" vertex="1" parent="1">
          <mxGeometry x="-731" y="-314" width="120" height="80" as="geometry" />
        </mxCell>
        <mxCell id="J938ZOK6EGLua0QpuIXS-82" value="include" style="edgeStyle=none;curved=1;rounded=0;orthogonalLoop=1;jettySize=auto;html=1;exitX=1;exitY=0.5;exitDx=0;exitDy=0;fontSize=12;startSize=8;endSize=8;dashed=1;dashPattern=8 8;" edge="1" parent="1" source="J938ZOK6EGLua0QpuIXS-9" target="J938ZOK6EGLua0QpuIXS-81">
          <mxGeometry relative="1" as="geometry" />
        </mxCell>
        <mxCell id="J938ZOK6EGLua0QpuIXS-9" value="View available tables" style="ellipse;whiteSpace=wrap;html=1;" vertex="1" parent="1">
          <mxGeometry x="-447" y="-652" width="120" height="80" as="geometry" />
        </mxCell>
        <mxCell id="J938ZOK6EGLua0QpuIXS-33" value="&lt;br&gt;&lt;br style=&quot;forced-color-adjust: none;&quot;&gt;&lt;span style=&quot;forced-color-adjust: none; color: rgb(0, 0, 0); font-family: Helvetica; font-size: 12px; font-style: normal; font-variant-ligatures: normal; font-variant-caps: normal; font-weight: 400; letter-spacing: normal; orphans: 2; text-align: center; text-indent: 0px; text-transform: none; widows: 2; word-spacing: 0px; -webkit-text-stroke-width: 0px; white-space: nowrap; background-color: rgb(255, 255, 255); text-decoration-thickness: initial; text-decoration-style: initial; text-decoration-color: initial; float: none; display: inline !important;&quot;&gt;&amp;lt;&amp;lt;extend&amp;gt;&amp;gt;&lt;/span&gt;&lt;div style=&quot;forced-color-adjust: none;&quot;&gt;&lt;br style=&quot;forced-color-adjust: none; color: rgb(0, 0, 0); font-family: Helvetica; font-size: 12px; font-style: normal; font-variant-ligatures: normal; font-variant-caps: normal; font-weight: 400; letter-spacing: normal; orphans: 2; text-align: center; text-indent: 0px; text-transform: none; widows: 2; word-spacing: 0px; -webkit-text-stroke-width: 0px; white-space: nowrap; background-color: rgb(255, 255, 255); text-decoration-thickness: initial; text-decoration-style: initial; text-decoration-color: initial;&quot;&gt;&lt;br&gt;&lt;br&gt;&lt;/div&gt;" style="edgeStyle=none;curved=1;rounded=0;orthogonalLoop=1;jettySize=auto;html=1;exitX=1;exitY=1;exitDx=0;exitDy=0;entryX=0;entryY=0.5;entryDx=0;entryDy=0;fontSize=12;startSize=8;endSize=8;dashed=1;dashPattern=8 8;" edge="1" parent="1" source="J938ZOK6EGLua0QpuIXS-10" target="J938ZOK6EGLua0QpuIXS-78">
          <mxGeometry relative="1" as="geometry" />
        </mxCell>
        <mxCell id="J938ZOK6EGLua0QpuIXS-10" value="Adjust" style="ellipse;whiteSpace=wrap;html=1;" vertex="1" parent="1">
          <mxGeometry x="-720" y="-518" width="120" height="80" as="geometry" />
        </mxCell>
        <mxCell id="J938ZOK6EGLua0QpuIXS-83" value="&amp;lt;&amp;lt;include&amp;gt;&amp;gt;" style="edgeStyle=none;curved=1;rounded=0;orthogonalLoop=1;jettySize=auto;html=1;exitX=0;exitY=0;exitDx=0;exitDy=0;entryX=1;entryY=1;entryDx=0;entryDy=0;fontSize=12;startSize=8;endSize=8;dashed=1;dashPattern=8 8;" edge="1" parent="1" source="J938ZOK6EGLua0QpuIXS-11" target="J938ZOK6EGLua0QpuIXS-78">
          <mxGeometry relative="1" as="geometry" />
        </mxCell>
        <mxCell id="J938ZOK6EGLua0QpuIXS-11" value="Get bill" style="ellipse;whiteSpace=wrap;html=1;" vertex="1" parent="1">
          <mxGeometry x="-247" y="-359" width="120" height="80" as="geometry" />
        </mxCell>
        <mxCell id="J938ZOK6EGLua0QpuIXS-12" value="View list of&lt;div&gt;all tables&#39; orders&lt;/div&gt;" style="ellipse;whiteSpace=wrap;html=1;" vertex="1" parent="1">
          <mxGeometry x="-409" y="-203" width="120" height="114" as="geometry" />
        </mxCell>
        <mxCell id="J938ZOK6EGLua0QpuIXS-25" style="edgeStyle=none;curved=1;rounded=0;orthogonalLoop=1;jettySize=auto;html=1;exitX=0.5;exitY=0.5;exitDx=0;exitDy=0;exitPerimeter=0;entryX=0;entryY=0.5;entryDx=0;entryDy=0;fontSize=12;startSize=8;endSize=8;endArrow=none;endFill=0;" edge="1" parent="1" source="J938ZOK6EGLua0QpuIXS-1" target="J938ZOK6EGLua0QpuIXS-7">
          <mxGeometry relative="1" as="geometry" />
        </mxCell>
        <mxCell id="J938ZOK6EGLua0QpuIXS-53" value="&#xa;&lt;br style=&quot;forced-color-adjust: none; color: rgb(0, 0, 0); font-family: Helvetica; font-size: 12px; font-style: normal; font-variant-ligatures: normal; font-variant-caps: normal; font-weight: 400; letter-spacing: normal; orphans: 2; text-align: center; text-indent: 0px; text-transform: none; widows: 2; word-spacing: 0px; -webkit-text-stroke-width: 0px; white-space: nowrap; text-decoration-thickness: initial; text-decoration-style: initial; text-decoration-color: initial;&quot;&gt;&lt;span style=&quot;forced-color-adjust: none; color: rgb(0, 0, 0); font-family: Helvetica; font-size: 12px; font-style: normal; font-variant-ligatures: normal; font-variant-caps: normal; font-weight: 400; letter-spacing: normal; orphans: 2; text-align: center; text-indent: 0px; text-transform: none; widows: 2; word-spacing: 0px; -webkit-text-stroke-width: 0px; white-space: nowrap; background-color: rgb(255, 255, 255); text-decoration-thickness: initial; text-decoration-style: initial; text-decoration-color: initial; float: none; display: inline !important;&quot;&gt;&amp;lt;&amp;lt;includes&amp;gt;&amp;gt;&lt;/span&gt;&#xa;&#xa;" style="edgeStyle=none;curved=1;rounded=0;orthogonalLoop=1;jettySize=auto;html=1;exitX=0;exitY=0;exitDx=0;exitDy=0;entryX=1;entryY=0.5;entryDx=0;entryDy=0;fontSize=12;startSize=8;endSize=8;dashed=1;dashPattern=8 8;" edge="1" parent="1" source="J938ZOK6EGLua0QpuIXS-42" target="J938ZOK6EGLua0QpuIXS-45">
          <mxGeometry relative="1" as="geometry" />
        </mxCell>
        <mxCell id="J938ZOK6EGLua0QpuIXS-42" value="View list of dishes" style="ellipse;whiteSpace=wrap;html=1;" vertex="1" parent="1">
          <mxGeometry x="647" y="-619" width="120" height="80" as="geometry" />
        </mxCell>
        <mxCell id="J938ZOK6EGLua0QpuIXS-63" value="&amp;lt;&amp;lt;include&amp;gt;&amp;gt;" style="edgeStyle=none;curved=1;rounded=0;orthogonalLoop=1;jettySize=auto;html=1;exitX=0;exitY=0.5;exitDx=0;exitDy=0;entryX=1;entryY=0.5;entryDx=0;entryDy=0;fontSize=12;startSize=8;endSize=8;dashed=1;dashPattern=8 8;" edge="1" parent="1" source="J938ZOK6EGLua0QpuIXS-43" target="J938ZOK6EGLua0QpuIXS-47">
          <mxGeometry relative="1" as="geometry" />
        </mxCell>
        <mxCell id="J938ZOK6EGLua0QpuIXS-43" value="View table&#39;s order" style="ellipse;whiteSpace=wrap;html=1;" vertex="1" parent="1">
          <mxGeometry x="633" y="-193" width="120" height="80" as="geometry" />
        </mxCell>
        <mxCell id="J938ZOK6EGLua0QpuIXS-54" value="&lt;br&gt;&lt;span style=&quot;color: rgb(0, 0, 0); font-family: Helvetica; font-size: 12px; font-style: normal; font-variant-ligatures: normal; font-variant-caps: normal; font-weight: 400; letter-spacing: normal; orphans: 2; text-align: center; text-indent: 0px; text-transform: none; widows: 2; word-spacing: 0px; -webkit-text-stroke-width: 0px; white-space: nowrap; background-color: rgb(255, 255, 255); text-decoration-thickness: initial; text-decoration-style: initial; text-decoration-color: initial; display: inline !important; float: none;&quot;&gt;&amp;lt;&amp;lt;include&amp;gt;&amp;gt;&lt;/span&gt;&lt;div&gt;&lt;br&gt;&lt;/div&gt;" style="edgeStyle=none;curved=1;rounded=0;orthogonalLoop=1;jettySize=auto;html=1;exitX=0;exitY=0.5;exitDx=0;exitDy=0;fontSize=12;startSize=8;endSize=8;dashed=1;dashPattern=8 8;" edge="1" parent="1" source="J938ZOK6EGLua0QpuIXS-45" target="J938ZOK6EGLua0QpuIXS-46">
          <mxGeometry relative="1" as="geometry" />
        </mxCell>
        <mxCell id="J938ZOK6EGLua0QpuIXS-45" value="View dishes&#39; details" style="ellipse;whiteSpace=wrap;html=1;" vertex="1" parent="1">
          <mxGeometry x="406" y="-762" width="120" height="80" as="geometry" />
        </mxCell>
        <mxCell id="J938ZOK6EGLua0QpuIXS-55" value="&amp;lt;&amp;lt;include&amp;gt;&amp;gt;" style="edgeStyle=none;curved=1;rounded=0;orthogonalLoop=1;jettySize=auto;html=1;exitX=1;exitY=1;exitDx=0;exitDy=0;entryX=0;entryY=0;entryDx=0;entryDy=0;fontSize=12;startSize=8;endSize=8;dashed=1;dashPattern=8 8;" edge="1" parent="1" source="J938ZOK6EGLua0QpuIXS-46" target="J938ZOK6EGLua0QpuIXS-50">
          <mxGeometry relative="1" as="geometry" />
        </mxCell>
        <mxCell id="J938ZOK6EGLua0QpuIXS-59" value="&amp;lt;&amp;lt;extend&amp;gt;&amp;gt;" style="edgeStyle=none;curved=1;rounded=0;orthogonalLoop=1;jettySize=auto;html=1;exitX=1;exitY=0.5;exitDx=0;exitDy=0;entryX=0;entryY=0.5;entryDx=0;entryDy=0;fontSize=12;startSize=8;endSize=8;dashed=1;dashPattern=8 8;" edge="1" parent="1" source="J938ZOK6EGLua0QpuIXS-46" target="J938ZOK6EGLua0QpuIXS-42">
          <mxGeometry relative="1" as="geometry" />
        </mxCell>
        <mxCell id="J938ZOK6EGLua0QpuIXS-46" value="Add to cart" style="ellipse;whiteSpace=wrap;html=1;" vertex="1" parent="1">
          <mxGeometry x="179" y="-576" width="120" height="80" as="geometry" />
        </mxCell>
        <mxCell id="J938ZOK6EGLua0QpuIXS-64" value="&amp;lt;&amp;lt;extend&amp;gt;&amp;gt;" style="edgeStyle=none;curved=1;rounded=0;orthogonalLoop=1;jettySize=auto;html=1;exitX=0;exitY=0.5;exitDx=0;exitDy=0;entryX=1;entryY=1;entryDx=0;entryDy=0;fontSize=12;startSize=8;endSize=8;dashed=1;dashPattern=8 8;" edge="1" parent="1" source="J938ZOK6EGLua0QpuIXS-47" target="J938ZOK6EGLua0QpuIXS-48">
          <mxGeometry relative="1" as="geometry" />
        </mxCell>
        <mxCell id="J938ZOK6EGLua0QpuIXS-47" value="View order&#39;s details" style="ellipse;whiteSpace=wrap;html=1;" vertex="1" parent="1">
          <mxGeometry x="314" y="-176" width="120" height="80" as="geometry" />
        </mxCell>
        <mxCell id="J938ZOK6EGLua0QpuIXS-48" value="Request cancel, update order" style="ellipse;whiteSpace=wrap;html=1;" vertex="1" parent="1">
          <mxGeometry x="92" y="-263" width="120" height="80" as="geometry" />
        </mxCell>
        <mxCell id="J938ZOK6EGLua0QpuIXS-61" value="&amp;lt;&amp;lt;include&amp;gt;&amp;gt;" style="edgeStyle=none;curved=1;rounded=0;orthogonalLoop=1;jettySize=auto;html=1;exitX=0;exitY=1;exitDx=0;exitDy=0;entryX=1;entryY=0;entryDx=0;entryDy=0;fontSize=12;startSize=8;endSize=8;dashed=1;dashPattern=8 8;endArrow=classic;endFill=1;" edge="1" parent="1" source="J938ZOK6EGLua0QpuIXS-50" target="J938ZOK6EGLua0QpuIXS-60">
          <mxGeometry relative="1" as="geometry" />
        </mxCell>
        <mxCell id="J938ZOK6EGLua0QpuIXS-50" value="View cart" style="ellipse;whiteSpace=wrap;html=1;" vertex="1" parent="1">
          <mxGeometry x="568" y="-481" width="120" height="80" as="geometry" />
        </mxCell>
        <mxCell id="J938ZOK6EGLua0QpuIXS-62" value="&amp;lt;&amp;lt;include&amp;gt;&amp;gt;" style="edgeStyle=none;curved=1;rounded=0;orthogonalLoop=1;jettySize=auto;html=1;exitX=1;exitY=1;exitDx=0;exitDy=0;entryX=0;entryY=0;entryDx=0;entryDy=0;fontSize=12;startSize=8;endSize=8;dashed=1;dashPattern=8 8;" edge="1" parent="1" source="J938ZOK6EGLua0QpuIXS-60" target="J938ZOK6EGLua0QpuIXS-43">
          <mxGeometry relative="1" as="geometry" />
        </mxCell>
        <mxCell id="J938ZOK6EGLua0QpuIXS-60" value="Order" style="ellipse;whiteSpace=wrap;html=1;" vertex="1" parent="1">
          <mxGeometry x="369" y="-335" width="120" height="80" as="geometry" />
        </mxCell>
        <mxCell id="J938ZOK6EGLua0QpuIXS-69" value="&amp;lt;&amp;lt;include&amp;gt;&amp;gt;" style="edgeStyle=none;curved=1;rounded=0;orthogonalLoop=1;jettySize=auto;html=1;exitX=1;exitY=0.5;exitDx=0;exitDy=0;entryX=0;entryY=0.5;entryDx=0;entryDy=0;fontSize=12;startSize=8;endSize=8;dashed=1;dashPattern=8 8;" edge="1" parent="1" source="J938ZOK6EGLua0QpuIXS-65" target="J938ZOK6EGLua0QpuIXS-66">
          <mxGeometry relative="1" as="geometry" />
        </mxCell>
        <mxCell id="J938ZOK6EGLua0QpuIXS-65" value="View orders list" style="ellipse;whiteSpace=wrap;html=1;" vertex="1" parent="1">
          <mxGeometry x="-865" y="357" width="120" height="80" as="geometry" />
        </mxCell>
        <mxCell id="J938ZOK6EGLua0QpuIXS-71" value="&amp;lt;&amp;lt;include&amp;gt;&amp;gt;" style="edgeStyle=none;curved=1;rounded=0;orthogonalLoop=1;jettySize=auto;html=1;exitX=1;exitY=1;exitDx=0;exitDy=0;entryX=0;entryY=0;entryDx=0;entryDy=0;fontSize=12;startSize=8;endSize=8;dashed=1;dashPattern=8 8;" edge="1" parent="1" source="J938ZOK6EGLua0QpuIXS-66" target="J938ZOK6EGLua0QpuIXS-70">
          <mxGeometry relative="1" as="geometry">
            <mxPoint x="-464.00359312880727" y="427.0042712474617" as="sourcePoint" />
          </mxGeometry>
        </mxCell>
        <mxCell id="J938ZOK6EGLua0QpuIXS-72" value="&amp;lt;&amp;lt;extend&amp;gt;&amp;gt;" style="edgeStyle=none;curved=1;rounded=0;orthogonalLoop=1;jettySize=auto;html=1;exitX=1;exitY=0;exitDx=0;exitDy=0;entryX=0;entryY=1;entryDx=0;entryDy=0;fontSize=12;startSize=8;endSize=8;dashed=1;dashPattern=8 8;" edge="1" parent="1" source="J938ZOK6EGLua0QpuIXS-66" target="J938ZOK6EGLua0QpuIXS-67">
          <mxGeometry relative="1" as="geometry" />
        </mxCell>
        <mxCell id="J938ZOK6EGLua0QpuIXS-66" value="View order&#39;s details" style="ellipse;whiteSpace=wrap;html=1;" vertex="1" parent="1">
          <mxGeometry x="-564" y="357" width="120" height="80" as="geometry" />
        </mxCell>
        <mxCell id="J938ZOK6EGLua0QpuIXS-67" value="Approve/reject&amp;nbsp;&lt;div&gt;update&lt;/div&gt;" style="ellipse;whiteSpace=wrap;html=1;" vertex="1" parent="1">
          <mxGeometry x="-340" y="129" width="120" height="80" as="geometry" />
        </mxCell>
        <mxCell id="J938ZOK6EGLua0QpuIXS-70" value="Update order" style="ellipse;whiteSpace=wrap;html=1;" vertex="1" parent="1">
          <mxGeometry x="-305" y="616" width="120" height="80" as="geometry" />
        </mxCell>
        <mxCell id="J938ZOK6EGLua0QpuIXS-76" value="&amp;lt;&amp;lt;include&amp;gt;&amp;gt;" style="edgeStyle=none;curved=1;rounded=0;orthogonalLoop=1;jettySize=auto;html=1;exitX=0;exitY=0.5;exitDx=0;exitDy=0;entryX=1;entryY=0.5;entryDx=0;entryDy=0;fontSize=12;startSize=8;endSize=8;dashed=1;dashPattern=8 8;" edge="1" parent="1" source="J938ZOK6EGLua0QpuIXS-73" target="J938ZOK6EGLua0QpuIXS-74">
          <mxGeometry relative="1" as="geometry" />
        </mxCell>
        <mxCell id="J938ZOK6EGLua0QpuIXS-73" value="View order list" style="ellipse;whiteSpace=wrap;html=1;" vertex="1" parent="1">
          <mxGeometry x="633" y="385" width="120" height="80" as="geometry" />
        </mxCell>
        <mxCell id="J938ZOK6EGLua0QpuIXS-74" value="Update order" style="ellipse;whiteSpace=wrap;html=1;" vertex="1" parent="1">
          <mxGeometry x="135" y="383" width="120" height="80" as="geometry" />
        </mxCell>
        <mxCell id="J938ZOK6EGLua0QpuIXS-79" value="&amp;lt;&amp;lt;extend&amp;gt;&amp;gt;" style="edgeStyle=none;curved=1;rounded=0;orthogonalLoop=1;jettySize=auto;html=1;exitX=1;exitY=0;exitDx=0;exitDy=0;entryX=0;entryY=1;entryDx=0;entryDy=0;fontSize=12;startSize=8;endSize=8;dashed=1;dashPattern=8 8;" edge="1" parent="1" source="J938ZOK6EGLua0QpuIXS-10" target="J938ZOK6EGLua0QpuIXS-9">
          <mxGeometry relative="1" as="geometry" />
        </mxCell>
        <mxCell id="J938ZOK6EGLua0QpuIXS-78" value="Check-out table" style="ellipse;whiteSpace=wrap;html=1;" vertex="1" parent="1">
          <mxGeometry x="-469" y="-479" width="120" height="80" as="geometry" />
        </mxCell>
        <mxCell id="J938ZOK6EGLua0QpuIXS-81" value="Add table" style="ellipse;whiteSpace=wrap;html=1;" vertex="1" parent="1">
          <mxGeometry x="-201" y="-652" width="120" height="80" as="geometry" />
        </mxCell>
      </root>
    </mxGraphModel>
  </diagram>
</mxfile>
